<svg xmlns="http://www.w3.org/2000/svg" version="1.1" xmlns:xlink="http://www.w3.org/1999/xlink" xmlns:svgjs="http://svgjs.dev/svgjs" width="1500" height="1500" viewBox="0 0 1500 1500"><rect width="1500" height="1500" fill="#000000"></rect><g transform="matrix(0.6666666666666666,0,0,0.6666666666666666,249.47337278106522,249.4733727810651)"><svg viewBox="0 0 338 338" data-background-color="#ffffff" preserveAspectRatio="xMidYMid meet" height="1500" width="1500" xmlns="http://www.w3.org/2000/svg" xmlns:xlink="http://www.w3.org/1999/xlink"><g id="tight-bounds" transform="matrix(1,0,0,1,0.17799999999996885,0.17799999999999727)"><svg viewBox="0 0 337.64362273527314 337.64362273527314" height="337.64362273527314" width="337.64362273527314"><g><svg></svg></g><g><svg viewBox="0 0 337.64362273527314 337.64362273527314" height="337.64362273527314" width="337.64362273527314"><g><path d="M0 168.822c0-93.238 75.584-168.822 168.822-168.822 93.238 0 168.822 75.584 168.822 168.822 0 93.238-75.584 168.822-168.822 168.822-93.238 0-168.822-75.584-168.822-168.822zM168.822 320.369c83.697 0 151.547-67.85 151.547-151.547 0-83.697-67.85-151.547-151.547-151.547-83.697 0-151.547 67.85-151.547 151.547 0 83.697 67.85 151.547 151.547 151.547z" data-fill-palette-color="tertiary" fill="#ffffff" stroke="transparent"></path><ellipse rx="162.0689389129311" ry="162.0689389129311" cx="168.82181136763657" cy="168.82181136763657" fill="#ffffff" stroke="transparent" stroke-width="0" fill-opacity="1" data-fill-palette-color="tertiary"></ellipse></g><g transform="matrix(1,0,0,1,64.08387410794612,73.04259075405801)"><svg viewBox="0 0 209.4758745193809 191.55844122715712" height="191.55844122715712" width="209.4758745193809"><g><svg viewBox="0 0 209.4758745193809 191.55844122715712" height="191.55844122715712" width="209.4758745193809"><g><svg viewBox="0 0 209.4758745193809 191.55844122715712" height="191.55844122715712" width="209.4758745193809"><g id="textblocktransform"><svg viewBox="0 0 209.4758745193809 191.55844122715712" height="191.55844122715712" width="209.4758745193809" id="textblock"><g><svg viewBox="0 0 209.4758745193809 191.55844122715712" height="191.55844122715712" width="209.4758745193809"><g transform="matrix(1,0,0,1,0,0)"><svg width="209.4758745193809" viewBox="3.25 -35.5 39.75 36.35" height="191.55844122715712" data-palette-color="#ffffff"><path d="M3.25-34.65L11.45-34.65 11.45 0 3.25 0 3.25-34.65ZM32.05-35.5Q35.3-35.5 37.82-34.55 40.35-33.6 42.6-31.7L42.6-31.7 38.7-27.05Q37.15-28.25 35.65-28.85 34.15-29.45 32.45-29.45L32.45-29.45Q28.95-29.45 26.92-26.5 24.9-23.55 24.9-17.4L24.9-17.4Q24.9-11.35 26.92-8.43 28.95-5.5 32.55-5.5L32.55-5.5Q34.45-5.5 36-6.23 37.55-6.95 39.35-8.3L39.35-8.3 43-3.6Q41.05-1.65 38.27-0.4 35.5 0.85 32.15 0.85L32.15 0.85Q27.35 0.85 23.8-1.25 20.25-3.35 18.27-7.48 16.3-11.6 16.3-17.4L16.3-17.4Q16.3-23.05 18.32-27.15 20.35-31.25 23.92-33.38 27.5-35.5 32.05-35.5L32.05-35.5Z" opacity="1" transform="matrix(1,0,0,1,0,0)" fill="#000000" class="wordmark-text-0" data-fill-palette-color="quaternary" id="text-0"></path></svg></g></svg></g></svg></g></svg></g><g></g></svg></g></svg></g></svg></g><defs></defs></svg><rect width="337.64362273527314" height="337.64362273527314" fill="none" stroke="none" visibility="hidden"></rect></g></svg></g></svg>